<?xml version="1.0" encoding="iso-8859-1"?>
<!-- Generator: Adobe Illustrator 19.0.0, SVG Export Plug-In . SVG Version: 6.00 Build 0)  -->
<svg version="1.1" id="Layer_1" xmlns="http://www.w3.org/2000/svg" xmlns:xlink="http://www.w3.org/1999/xlink" x="0px" y="0px"
	 viewBox="0 0 472 472" style="enable-background:new 0 0 472 472;" xml:space="preserve">
<path style="fill:#596666;" d="M472,426.4c0,16.8-13.6,31.2-31.2,31.2H31.2C14.4,457.6,0,444,0,426.4V45.6
	c0-16.8,13.6-31.2,31.2-31.2h409.6c16.8,0,31.2,13.6,31.2,31.2L472,426.4L472,426.4z"/>
<path style="fill:#494F4F;" d="M265.6,60.8c-96.8,0-175.2,78.4-175.2,175.2c0,60.8,31.2,157.6,77.6,221.6h194.4
	c47.2-64,77.6-160.8,77.6-221.6C440.8,139.2,362.4,60.8,265.6,60.8z"/>
<path style="fill:#6A7677;" d="M31.2,457.6C14.4,457.6,0,444,0,426.4V45.6c0-16.8,13.6-31.2,31.2-31.2h409.6
	c16.8,0,31.2,13.6,31.2,31.2"/>
<circle style="fill:#BFD5D8;" cx="265.6" cy="236" r="175.2"/>
<path style="fill:#B0CCD1;" d="M141.6,112c68-68,179.2-68,247.2,0s68,179.2,0,247.2"/>
<path style="fill:#CFE6E8;" d="M424,310.4l-104-61.6l-40.8,40.8l61.6,104C376.8,376.8,406.4,347.2,424,310.4z"/>
<path style="fill:#BAD6D8;" d="M320,248.8l-20.8,20.8l89.6,89.6c3.2-3.2,6.4-7.2,9.6-10.4c0,0,0,0,0.8-0.8c3.2-4,6.4-7.2,8.8-11.2
	l0,0c5.6-8,10.4-16.8,15.2-25.6L320,248.8z"/>
<path style="fill:#CFE6E8;" d="M107.2,161.6l104,61.6l40.8-40.8l-61.6-104C154.4,95.2,124.8,124.8,107.2,161.6z"/>
<path style="fill:#BAD6D8;" d="M232,202.4l20.8-20.8l-61.6-104c-8.8,4-17.6,9.6-25.6,15.2l0,0c-4,3.2-8,5.6-11.2,8.8
	c0,0,0,0-0.8,0.8c-4,3.2-7.2,6.4-10.4,9.6L232,202.4z"/>
<path style="fill:#9BB6BC;" d="M265.6,423.2c-103.2,0-187.2-84-187.2-187.2s84-187.2,187.2-187.2S452,132.8,452,236
	S368.8,423.2,265.6,423.2z M265.6,72.8c-89.6,0-163.2,72.8-163.2,163.2s72.8,163.2,163.2,163.2c89.6,0,163.2-72.8,163.2-163.2
	S355.2,72.8,265.6,72.8z"/>
<circle style="fill:#424849;" cx="265.6" cy="236" r="68.8"/>
<path style="fill:#9BB6BC;" d="M265.6,310.4c-40.8,0-74.4-33.6-74.4-74.4s33.6-74.4,74.4-74.4S340,195.2,340,236
	S306.4,310.4,265.6,310.4z M265.6,173.6c-34.4,0-62.4,28-62.4,62.4s28,62.4,62.4,62.4s62.4-28,62.4-62.4S300,173.6,265.6,173.6z"/>
<circle style="fill:#C5DADD;" cx="265.6" cy="236" r="23.2"/>
<path style="fill:#B0CCD1;" d="M248.8,219.2c8.8-8.8,24-8.8,32.8,0s8.8,24,0,32.8"/>
<path style="fill:#3E4948;" d="M64,14.4H31.2C14.4,14.4,0,28,0,45.6v380c0,16.8,13.6,31.2,31.2,31.2H64V14.4z"/>
<polyline style="fill:#121C1B;" points="31.2,457.6 64,457.6 64,14.4 31.2,14.4 "/>
<g>
</g>
<g>
</g>
<g>
</g>
<g>
</g>
<g>
</g>
<g>
</g>
<g>
</g>
<g>
</g>
<g>
</g>
<g>
</g>
<g>
</g>
<g>
</g>
<g>
</g>
<g>
</g>
<g>
</g>
</svg>
