<?xml version="1.0" standalone="no"?>
<!DOCTYPE svg PUBLIC "-//W3C//DTD SVG 20010904//EN"
 "http://www.w3.org/TR/2001/REC-SVG-20010904/DTD/svg10.dtd">
<svg version="1.0" xmlns="http://www.w3.org/2000/svg"
 width="128.000000pt" height="128.000000pt" viewBox="0 0 128.000000 128.000000"
 preserveAspectRatio="xMidYMid meet">

<g transform="translate(0.000000,128.000000) scale(0.100000,-0.100000)"
fill="#000000" stroke="none">
<path d="M750 1269 c-65 -13 -146 -56 -178 -95 -16 -19 -50 -73 -76 -119 -54
-96 -84 -125 -131 -125 -58 0 -83 60 -51 123 21 38 3 34 -49 -14 -126 -116
-187 -312 -156 -506 15 -99 35 -153 89 -252 81 -144 187 -229 333 -265 83 -20
136 -20 218 0 160 40 274 136 355 301 47 95 66 170 72 293 10 169 -30 310
-111 393 -34 35 -93 73 -101 65 -2 -2 2 -20 8 -40 21 -69 -33 -112 -108 -88
-52 18 -112 75 -124 119 -14 52 9 125 56 179 39 46 37 47 -46 31z m12 -379
c201 -62 326 -264 289 -465 -42 -227 -246 -377 -469 -345 -317 45 -467 419
-269 670 107 136 284 191 449 140z"/>
<path d="M515 817 c-88 -35 -151 -94 -191 -181 -35 -76 -36 -75 44 -91 25 -5
32 -3 32 10 0 25 35 87 67 117 15 15 50 36 76 48 47 21 48 22 41 58 -10 58
-14 60 -69 39z"/>
<path d="M576 665 c-108 -38 -152 -167 -92 -269 67 -114 245 -114 312 0 62
106 10 242 -103 273 -49 14 -69 13 -117 -4z m90 -123 c6 -4 16 -17 23 -30 30
-57 -59 -102 -94 -48 -14 20 -14 29 -4 48 14 27 28 38 49 38 8 0 20 -4 26 -8z"/>
<path d="M876 414 c-15 -56 -63 -111 -126 -141 l-60 -28 6 -40 c3 -22 9 -44
14 -48 10 -11 86 20 137 56 50 35 109 117 124 171 6 21 9 39 7 41 -2 2 -24 6
-49 10 -45 7 -47 6 -53 -21z"/>
</g>
</svg>
